<?xml version="1.0" standalone="no"?>
<!DOCTYPE svg PUBLIC "-//W3C//DTD SVG 20010904//EN"
 "http://www.w3.org/TR/2001/REC-SVG-20010904/DTD/svg10.dtd">
<svg version="1.0" xmlns="http://www.w3.org/2000/svg"
 width="595.000000pt" height="595.000000pt" viewBox="0 0 595.000000 595.000000"
 preserveAspectRatio="xMidYMid meet">
<metadata>
Created by potrace 1.11, written by Peter Selinger 2001-2013
</metadata>
<g transform="translate(0.000000,595.000000) scale(0.100000,-0.100000)"
fill="#000000" stroke="none">
<path d="M590 5940 c-234 -41 -441 -206 -533 -426 -61 -144 -58 7 -55 -2579
l3 -2360 28 -80 c78 -223 239 -384 462 -462 l80 -28 2390 0 c2304 0 2392 1
2450 19 241 74 409 235 492 471 l28 80 0 2390 c0 2289 -1 2393 -18 2455 -69
243 -239 417 -491 504 l-61 21 -2365 1 c-1301 1 -2385 -2 -2410 -6z m4724
-140 c238 -61 424 -245 493 -490 17 -62 18 -165 18 -2335 0 -2170 -1 -2273
-18 -2335 -69 -245 -254 -429 -493 -490 -76 -20 -121 -20 -2344 -20 -2207 0
-2269 1 -2342 19 -241 62 -425 244 -495 491 -17 62 -18 165 -18 2335 0 2170 1
2273 18 2335 69 243 253 428 489 490 71 18 142 19 2344 19 2228 1 2272 1 2348
-19z"/>
<path d="M3334 5629 c-173 -54 -286 -205 -288 -384 0 -99 20 -164 78 -243 132
-179 392 -223 580 -97 69 46 137 132 162 208 26 75 23 195 -6 270 -78 204
-313 314 -526 246z"/>
<path d="M2875 4971 c-83 -22 -74 -13 -555 -553 -231 -260 -355 -407 -375
-445 -27 -53 -30 -67 -30 -153 0 -88 3 -101 33 -163 24 -48 47 -79 81 -105 27
-20 215 -140 419 -267 l371 -230 3 -480 c2 -397 6 -485 18 -510 57 -118 162
-163 267 -116 48 22 98 85 113 142 7 24 9 260 8 661 l-3 623 -25 49 c-14 27
-41 63 -61 80 -21 17 -141 92 -268 166 -127 74 -230 138 -228 141 3 11 461
519 467 519 3 0 59 -95 124 -210 132 -233 167 -274 238 -285 24 -3 204 -5 400
-3 342 3 358 4 384 24 45 33 67 70 71 121 5 59 -18 108 -66 140 -34 23 -38 23
-356 23 l-322 0 -201 353 c-110 193 -214 368 -230 387 -61 72 -189 114 -277
91z"/>
<path d="M1386 3409 c-378 -49 -710 -309 -847 -664 -93 -238 -93 -522 0 -760
95 -245 276 -442 516 -561 345 -171 737 -146 1065 67 81 53 233 204 285 284
241 368 240 813 -1 1182 -56 86 -198 223 -294 285 -221 143 -468 199 -724 167z
m318 -204 c171 -35 302 -109 436 -244 181 -183 261 -394 247 -646 -13 -215
-98 -403 -249 -553 -175 -173 -370 -253 -617 -253 -338 1 -631 187 -776 494
-58 121 -77 213 -77 362 0 101 4 148 21 210 85 318 338 561 656 630 83 18 270
18 359 0z"/>
<path d="M4275 3409 c-158 -21 -328 -87 -467 -180 -80 -54 -222 -196 -272
-272 -241 -369 -242 -814 -1 -1182 54 -83 205 -231 293 -289 320 -208 713
-231 1057 -62 364 180 585 534 585 941 0 502 -345 925 -840 1031 -86 18 -268
25 -355 13z m385 -222 c112 -37 147 -54 236 -113 455 -301 510 -957 112 -1330
-168 -157 -365 -235 -593 -235 -239 0 -447 86 -613 253 -152 151 -236 339
-249 553 -24 422 260 796 678 890 45 10 107 14 209 11 121 -3 157 -8 220 -29z"/>
<path d="M1484 977 c-2 -7 -3 -91 -2 -187 l3 -175 140 -3 c77 -2 214 2 305 7
218 13 290 38 290 102 0 35 -37 66 -98 81 l-44 11 38 13 c85 29 90 83 11 122
-39 20 -69 25 -204 32 -244 14 -433 13 -439 -3z m435 -68 c20 -7 31 -18 31
-30 0 -25 -55 -39 -157 -39 l-83 0 0 40 0 40 89 0 c48 0 102 -5 120 -11z m47
-153 c64 -43 -1 -75 -153 -75 l-103 -1 0 43 c0 24 3 47 8 51 14 15 220 0 248
-18z"/>
<path d="M2424 977 c-2 -7 -3 -91 -2 -187 l3 -175 113 -3 112 -3 0 191 0 190
-110 0 c-81 0 -112 -3 -116 -13z"/>
<path d="M2885 977 c-3 -7 -4 -91 -3 -187 l3 -175 115 0 115 0 3 72 3 71 183
-74 184 -74 133 0 c80 0 129 4 124 9 -6 5 -108 49 -227 97 -120 48 -218 91
-218 94 0 4 90 42 200 86 110 43 200 82 200 87 0 4 -53 7 -117 7 l-118 0 -172
-69 -172 -69 -3 67 -3 66 -113 3 c-86 2 -114 0 -117 -11z"/>
<path d="M3844 977 c-2 -7 -3 -91 -2 -187 l3 -175 318 -3 317 -2 0 40 0 40
-205 0 -205 0 0 40 0 40 185 0 185 0 0 35 0 35 -182 2 -183 3 -3 33 -3 32 201
0 201 0 -3 38 -3 37 -308 3 c-245 2 -309 0 -313 -11z"/>
</g>
</svg>
